<mxfile host="app.diagrams.net" modified="2023-09-25T10:25:22.249Z" agent="Mozilla/5.0 (Macintosh; Intel Mac OS X 10_15_7) AppleWebKit/605.1.15 (KHTML, like Gecko) Version/16.3 Safari/605.1.15" etag="0YnBTOXk3JvL9miAlYbg" version="21.8.2" type="github">
  <diagram name="Page-1" id="2YBvvXClWsGukQMizWep">
    <mxGraphModel dx="986" dy="647" grid="1" gridSize="10" guides="1" tooltips="1" connect="1" arrows="1" fold="1" page="1" pageScale="1" pageWidth="850" pageHeight="1100" math="0" shadow="0">
      <root>
        <mxCell id="0" />
        <mxCell id="1" parent="0" />
        <mxCell id="bSgejq6akdJiE-Cmj8o2-1" value="controller:&lt;br&gt;Controller" style="shape=umlLifeline;perimeter=lifelinePerimeter;whiteSpace=wrap;html=1;container=1;dropTarget=0;collapsible=0;recursiveResize=0;outlineConnect=0;portConstraint=eastwest;newEdgeStyle={&quot;curved&quot;:0,&quot;rounded&quot;:0};" vertex="1" parent="1">
          <mxGeometry x="105" y="20" width="100" height="650" as="geometry" />
        </mxCell>
        <mxCell id="bSgejq6akdJiE-Cmj8o2-2" value="" style="html=1;points=[[0,0,0,0,5],[0,1,0,0,-5],[1,0,0,0,5],[1,1,0,0,-5]];perimeter=orthogonalPerimeter;outlineConnect=0;targetShapes=umlLifeline;portConstraint=eastwest;newEdgeStyle={&quot;curved&quot;:0,&quot;rounded&quot;:0};" vertex="1" parent="bSgejq6akdJiE-Cmj8o2-1">
          <mxGeometry x="45" y="50" width="10" height="580" as="geometry" />
        </mxCell>
        <mxCell id="bSgejq6akdJiE-Cmj8o2-5" value="" style="line;strokeWidth=1;fillColor=none;align=left;verticalAlign=middle;spacingTop=-1;spacingLeft=3;spacingRight=3;rotatable=0;labelPosition=right;points=[];portConstraint=eastwest;strokeColor=inherit;dashed=1;" vertex="1" parent="1">
          <mxGeometry x="20" y="360" width="1020" height="8" as="geometry" />
        </mxCell>
        <mxCell id="bSgejq6akdJiE-Cmj8o2-11" value="intervalloDAO:&lt;br&gt;IntervalloPGDAO" style="shape=umlLifeline;perimeter=lifelinePerimeter;whiteSpace=wrap;html=1;container=1;dropTarget=0;collapsible=0;recursiveResize=0;outlineConnect=0;portConstraint=eastwest;newEdgeStyle={&quot;curved&quot;:0,&quot;rounded&quot;:0};" vertex="1" parent="1">
          <mxGeometry x="520" y="20" width="110" height="650" as="geometry" />
        </mxCell>
        <mxCell id="bSgejq6akdJiE-Cmj8o2-12" value="" style="html=1;points=[[0,0,0,0,5],[0,1,0,0,-5],[1,0,0,0,5],[1,1,0,0,-5]];perimeter=orthogonalPerimeter;outlineConnect=0;targetShapes=umlLifeline;portConstraint=eastwest;newEdgeStyle={&quot;curved&quot;:0,&quot;rounded&quot;:0};" vertex="1" parent="bSgejq6akdJiE-Cmj8o2-11">
          <mxGeometry x="50" y="270" width="10" height="35" as="geometry" />
        </mxCell>
        <mxCell id="bSgejq6akdJiE-Cmj8o2-14" value="JOptionPane" style="shape=umlLifeline;perimeter=lifelinePerimeter;whiteSpace=wrap;html=1;container=1;dropTarget=0;collapsible=0;recursiveResize=0;outlineConnect=0;portConstraint=eastwest;newEdgeStyle={&quot;curved&quot;:0,&quot;rounded&quot;:0};" vertex="1" parent="1">
          <mxGeometry x="330" y="20" width="110" height="650" as="geometry" />
        </mxCell>
        <mxCell id="bSgejq6akdJiE-Cmj8o2-15" value="" style="html=1;points=[[0,0,0,0,5],[0,1,0,0,-5],[1,0,0,0,5],[1,1,0,0,-5]];perimeter=orthogonalPerimeter;outlineConnect=0;targetShapes=umlLifeline;portConstraint=eastwest;newEdgeStyle={&quot;curved&quot;:0,&quot;rounded&quot;:0};" vertex="1" parent="bSgejq6akdJiE-Cmj8o2-14">
          <mxGeometry x="50" y="90" width="10" height="50" as="geometry" />
        </mxCell>
        <mxCell id="bSgejq6akdJiE-Cmj8o2-17" value="showMessageDialog(aggiungiConferenza, msg, JOptionPane.YES_NO_OPTION)" style="html=1;verticalAlign=bottom;endArrow=block;curved=0;rounded=0;" edge="1" parent="1" target="bSgejq6akdJiE-Cmj8o2-14" source="bSgejq6akdJiE-Cmj8o2-2">
          <mxGeometry x="-0.02" width="80" relative="1" as="geometry">
            <mxPoint x="155" y="340" as="sourcePoint" />
            <mxPoint x="235" y="340" as="targetPoint" />
            <Array as="points">
              <mxPoint x="310" y="120" />
            </Array>
            <mxPoint as="offset" />
          </mxGeometry>
        </mxCell>
        <mxCell id="bSgejq6akdJiE-Cmj8o2-21" value="alt" style="shape=umlFrame;whiteSpace=wrap;html=1;pointerEvents=0;" vertex="1" parent="1">
          <mxGeometry x="20" y="180" width="1020" height="480" as="geometry" />
        </mxCell>
        <mxCell id="bSgejq6akdJiE-Cmj8o2-22" value="result : int" style="html=1;verticalAlign=bottom;endArrow=open;dashed=1;endSize=8;curved=0;rounded=0;" edge="1" parent="1">
          <mxGeometry relative="1" as="geometry">
            <mxPoint x="380" y="150" as="sourcePoint" />
            <mxPoint x="160" y="150" as="targetPoint" />
            <mxPoint as="offset" />
          </mxGeometry>
        </mxCell>
        <mxCell id="bSgejq6akdJiE-Cmj8o2-23" value="[elementoProgramma &lt;br&gt;instanceof Intervallo]" style="text;html=1;align=center;verticalAlign=middle;resizable=0;points=[];autosize=1;strokeColor=none;fillColor=none;" vertex="1" parent="1">
          <mxGeometry x="20" y="210" width="140" height="40" as="geometry" />
        </mxCell>
        <mxCell id="bSgejq6akdJiE-Cmj8o2-24" value="delete(elementoProgramma.getId())" style="html=1;verticalAlign=bottom;endArrow=block;curved=0;rounded=0;" edge="1" parent="1">
          <mxGeometry x="-0.0012" width="80" relative="1" as="geometry">
            <mxPoint x="160" y="299.5" as="sourcePoint" />
            <mxPoint x="574.5" y="299.5" as="targetPoint" />
            <Array as="points">
              <mxPoint x="500" y="299.5" />
            </Array>
            <mxPoint as="offset" />
          </mxGeometry>
        </mxCell>
        <mxCell id="bSgejq6akdJiE-Cmj8o2-27" value="opt" style="shape=umlFrame;whiteSpace=wrap;html=1;pointerEvents=0;" vertex="1" parent="1">
          <mxGeometry x="20" y="250" width="670" height="90" as="geometry" />
        </mxCell>
        <mxCell id="bSgejq6akdJiE-Cmj8o2-28" value="result == 0" style="text;html=1;align=center;verticalAlign=middle;resizable=0;points=[];autosize=1;strokeColor=none;fillColor=none;" vertex="1" parent="1">
          <mxGeometry x="30" y="280" width="80" height="30" as="geometry" />
        </mxCell>
        <mxCell id="bSgejq6akdJiE-Cmj8o2-29" value="[elementoProgramma&amp;nbsp;&lt;br style=&quot;border-color: var(--border-color);&quot;&gt;instanceof intervento]" style="text;html=1;align=center;verticalAlign=middle;resizable=0;points=[];autosize=1;strokeColor=none;fillColor=none;" vertex="1" parent="1">
          <mxGeometry x="10" y="368" width="140" height="40" as="geometry" />
        </mxCell>
        <mxCell id="bSgejq6akdJiE-Cmj8o2-30" value="intereventoDAO: InterventoPGDAO" style="shape=umlLifeline;perimeter=lifelinePerimeter;whiteSpace=wrap;html=1;container=1;dropTarget=0;collapsible=0;recursiveResize=0;outlineConnect=0;portConstraint=eastwest;newEdgeStyle={&quot;curved&quot;:0,&quot;rounded&quot;:0};" vertex="1" parent="1">
          <mxGeometry x="740" y="20" width="110" height="650" as="geometry" />
        </mxCell>
        <mxCell id="bSgejq6akdJiE-Cmj8o2-31" value="" style="html=1;points=[[0,0,0,0,5],[0,1,0,0,-5],[1,0,0,0,5],[1,1,0,0,-5]];perimeter=orthogonalPerimeter;outlineConnect=0;targetShapes=umlLifeline;portConstraint=eastwest;newEdgeStyle={&quot;curved&quot;:0,&quot;rounded&quot;:0};" vertex="1" parent="bSgejq6akdJiE-Cmj8o2-30">
          <mxGeometry x="50" y="413" width="10" height="35" as="geometry" />
        </mxCell>
        <mxCell id="bSgejq6akdJiE-Cmj8o2-32" value="delete(elementoProgramma.getId())" style="html=1;verticalAlign=bottom;endArrow=block;curved=0;rounded=0;" edge="1" parent="1">
          <mxGeometry x="-0.0028" width="80" relative="1" as="geometry">
            <mxPoint x="160" y="438" as="sourcePoint" />
            <mxPoint x="790" y="438" as="targetPoint" />
            <Array as="points">
              <mxPoint x="500" y="438" />
            </Array>
            <mxPoint as="offset" />
          </mxGeometry>
        </mxCell>
        <mxCell id="bSgejq6akdJiE-Cmj8o2-33" value="" style="line;strokeWidth=1;fillColor=none;align=left;verticalAlign=middle;spacingTop=-1;spacingLeft=3;spacingRight=3;rotatable=0;labelPosition=right;points=[];portConstraint=eastwest;strokeColor=inherit;dashed=1;" vertex="1" parent="1">
          <mxGeometry x="20" y="510" width="1020" height="8" as="geometry" />
        </mxCell>
        <mxCell id="bSgejq6akdJiE-Cmj8o2-34" value="[elementoProgramma&amp;nbsp;&lt;br style=&quot;border-color: var(--border-color);&quot;&gt;instanceof evento]" style="text;html=1;align=center;verticalAlign=middle;resizable=0;points=[];autosize=1;strokeColor=none;fillColor=none;" vertex="1" parent="1">
          <mxGeometry x="20" y="510" width="140" height="40" as="geometry" />
        </mxCell>
        <mxCell id="bSgejq6akdJiE-Cmj8o2-35" value="eventoDAO: EventoPGDAO" style="shape=umlLifeline;perimeter=lifelinePerimeter;whiteSpace=wrap;html=1;container=1;dropTarget=0;collapsible=0;recursiveResize=0;outlineConnect=0;portConstraint=eastwest;newEdgeStyle={&quot;curved&quot;:0,&quot;rounded&quot;:0};" vertex="1" parent="1">
          <mxGeometry x="940" y="20" width="110" height="650" as="geometry" />
        </mxCell>
        <mxCell id="bSgejq6akdJiE-Cmj8o2-36" value="" style="html=1;points=[[0,0,0,0,5],[0,1,0,0,-5],[1,0,0,0,5],[1,1,0,0,-5]];perimeter=orthogonalPerimeter;outlineConnect=0;targetShapes=umlLifeline;portConstraint=eastwest;newEdgeStyle={&quot;curved&quot;:0,&quot;rounded&quot;:0};" vertex="1" parent="bSgejq6akdJiE-Cmj8o2-35">
          <mxGeometry x="50" y="540" width="10" height="35" as="geometry" />
        </mxCell>
        <mxCell id="bSgejq6akdJiE-Cmj8o2-37" value="delete(elementoProgramma.getId())" style="html=1;verticalAlign=bottom;endArrow=block;curved=0;rounded=0;" edge="1" parent="1">
          <mxGeometry x="-0.0028" width="80" relative="1" as="geometry">
            <mxPoint x="160" y="570" as="sourcePoint" />
            <mxPoint x="994.5" y="570" as="targetPoint" />
            <Array as="points">
              <mxPoint x="500" y="570" />
            </Array>
            <mxPoint as="offset" />
          </mxGeometry>
        </mxCell>
        <mxCell id="bSgejq6akdJiE-Cmj8o2-38" value="opt" style="shape=umlFrame;whiteSpace=wrap;html=1;pointerEvents=0;" vertex="1" parent="1">
          <mxGeometry x="20" y="408" width="820" height="90" as="geometry" />
        </mxCell>
        <mxCell id="bSgejq6akdJiE-Cmj8o2-39" value="result == 0" style="text;html=1;align=center;verticalAlign=middle;resizable=0;points=[];autosize=1;strokeColor=none;fillColor=none;" vertex="1" parent="1">
          <mxGeometry x="30" y="438" width="80" height="30" as="geometry" />
        </mxCell>
        <mxCell id="bSgejq6akdJiE-Cmj8o2-40" value="result == 0" style="text;html=1;align=center;verticalAlign=middle;resizable=0;points=[];autosize=1;strokeColor=none;fillColor=none;" vertex="1" parent="1">
          <mxGeometry x="30" y="580" width="80" height="30" as="geometry" />
        </mxCell>
        <mxCell id="bSgejq6akdJiE-Cmj8o2-41" value="opt" style="shape=umlFrame;whiteSpace=wrap;html=1;pointerEvents=0;" vertex="1" parent="1">
          <mxGeometry x="20" y="550" width="1020" height="90" as="geometry" />
        </mxCell>
        <mxCell id="bSgejq6akdJiE-Cmj8o2-42" value="deleteElementoProgramma(table : JTable, row : int)" style="html=1;verticalAlign=bottom;startArrow=circle;startFill=1;endArrow=open;startSize=6;endSize=8;curved=0;rounded=0;" edge="1" parent="1">
          <mxGeometry x="0.7143" y="10" width="80" relative="1" as="geometry">
            <mxPoint x="10" y="100" as="sourcePoint" />
            <mxPoint x="150" y="100" as="targetPoint" />
            <mxPoint as="offset" />
          </mxGeometry>
        </mxCell>
      </root>
    </mxGraphModel>
  </diagram>
</mxfile>
